Coordinates
version=1
nRows=14
nColumns=63
inDegrees=yes

Units are S.I. units (second, meters, Newtons, ...)
If the header above contains a line with 'inDegrees', this indicates whether rotational values are in degrees (yes) or radians (no).

endheader
time	pelvis_tilt	pelvis_list	pelvis_rotation	pelvis_tx	pelvis_ty	pelvis_tz	hip_flexion_r	hip_adduction_r	hip_rotation_r	knee_angle_r	knee_angle_r_beta	ankle_angle_r	subtalar_angle_r	mtp_angle_r	hip_flexion_l	hip_adduction_l	hip_rotation_l	knee_angle_l	knee_angle_l_beta	ankle_angle_l	subtalar_angle_l	mtp_angle_l	L5_S1_Flex_Ext	L5_S1_Lat_Bending	L5_S1_axial_rotation	L4_L5_Flex_Ext	L4_L5_Lat_Bending	L4_L5_axial_rotation	L3_L4_Flex_Ext	L3_L4_Lat_Bending	L3_L4_axial_rotation	L2_L3_Flex_Ext	L2_L3_Lat_Bending	L2_L3_axial_rotation	L1_L2_Flex_Ext	L1_L2_Lat_Bending	L1_L2_axial_rotation	L1_T12_Flex_Ext	L1_T12_Lat_Bending	L1_T12_axial_rotation	Abs_r3	Abs_r2	Abs_r1	Abs_t1	Abs_t2	neck_flexion	neck_bending	neck_rotation	arm_flex_r	arm_add_r	arm_rot_r	elbow_flex_r	pro_sup_r	wrist_flex_r	wrist_dev_r	arm_flex_l	arm_add_l	arm_rot_l	elbow_flex_l	pro_sup_l	wrist_flex_l	wrist_dev_l
2.250000	-1.564187	-2.391221	83.140526	0.235191	0.826642	0.686127	6.269699	-1.584241	-1.360027	8.463660	0.147719	22.192076	12.104516	0.000000	2.467065	0.894668	-9.124113	1.012705	0.017675	18.674777	-4.897101	0.000000	0.012012	-0.240291	1.539381	0.022308	-0.319587	1.635592	0.019735	-0.584244	1.635592	0.013729	-0.584244	1.346958	0.011155	-0.490002	1.250747	0.006864	-0.372211	1.154536	0.085802	-2.718220	8.561575	0.000000	0.000000	23.952007	2.675654	1.621683	21.832534	2.607489	136.981771	4.814232	6.652058	30.277630	-22.091809	22.970819	1.657500	143.949932	4.752526	5.783568	48.808356	-22.665125
2.281250	-1.619113	-2.432905	82.854031	0.235648	0.826567	0.686070	6.541484	-1.646794	-1.493796	8.919430	0.155673	22.736956	12.787205	0.000000	2.498518	0.936410	-9.729521	0.972855	0.016980	19.087921	-4.476501	0.000000	0.015041	-0.251826	1.545468	0.027933	-0.334928	1.642060	0.024712	-0.612290	1.642060	0.017191	-0.612290	1.352285	0.013967	-0.513523	1.255693	0.008595	-0.390078	1.159101	0.107440	-2.848705	8.595431	0.000000	0.000000	23.786791	2.695898	1.791043	20.860771	2.129704	130.770033	8.867670	13.698836	32.978350	-19.833955	21.957075	0.720810	135.204514	9.127352	11.328565	49.891139	-20.740249
2.312500	-1.666830	-2.449259	82.640039	0.236215	0.826496	0.685440	6.724024	-1.686179	-1.473787	9.319204	0.162651	23.295892	13.233600	0.000000	2.471012	0.963668	-10.255866	0.939936	0.016405	19.474784	-4.066675	0.000000	0.019677	-0.261696	1.541555	0.036543	-0.348056	1.637902	0.032328	-0.636288	1.637902	0.022489	-0.636288	1.348860	0.018272	-0.533651	1.252513	0.011244	-0.405367	1.156166	0.140553	-2.960358	8.573664	0.000000	0.000000	23.712589	2.713971	2.041169	19.573547	1.306735	122.968061	13.507495	21.796532	34.800084	-16.934185	20.634586	-0.733950	124.311813	14.226839	17.956802	49.362088	-18.714793
2.343750	-1.723229	-2.457205	82.511036	0.236890	0.826439	0.684371	6.836125	-1.717172	-1.287465	9.651269	0.168446	23.825227	13.392803	0.000000	2.417916	0.990421	-10.724463	0.925032	0.016145	19.827764	-3.609316	0.000000	0.026305	-0.273251	1.519665	0.048851	-0.363424	1.614644	0.043216	-0.664382	1.614644	0.030064	-0.664382	1.329707	0.024427	-0.557213	1.234728	0.015031	-0.423266	1.139749	0.187893	-3.091069	8.451921	0.000000	0.000000	23.731529	2.715364	2.301520	18.106798	0.230436	114.178635	18.521347	30.600960	35.737899	-13.623735	19.028739	-2.611755	112.465889	19.817455	25.177501	47.445736	-16.579409
2.375000	-1.786639	-2.472203	82.489597	0.237600	0.826368	0.682977	6.894015	-1.744482	-1.033564	9.910664	0.172974	24.306479	13.335104	0.000000	2.372406	1.016056	-11.088621	0.946775	0.016524	20.149793	-3.147945	0.000000	0.035535	-0.286349	1.473370	0.065993	-0.380844	1.565455	0.058381	-0.696228	1.565455	0.040613	-0.696228	1.289198	0.032998	-0.583922	1.197113	0.020305	-0.443554	1.105027	0.253825	-3.239232	8.194439	0.000000	0.000000	23.832337	2.746479	2.594797	16.545825	-1.024832	104.690573	23.769180	39.856250	35.779097	-10.121402	17.190560	-4.811055	100.272755	25.775864	32.773661	44.384192	-14.419765
2.406250	-1.849118	-2.498366	82.558218	0.238288	0.826231	0.681394	6.913391	-1.764279	-0.752076	10.106167	0.176386	24.724114	13.090707	0.000000	2.346293	1.036221	-11.325458	1.006926	0.017574	20.447175	-2.743372	0.000000	0.045930	-0.299379	1.409321	0.085297	-0.398174	1.497404	0.075459	-0.727910	1.497404	0.052494	-0.727910	1.233156	0.042651	-0.610493	1.145074	0.026244	-0.463738	1.056991	0.328074	-3.386633	7.838223	0.000000	0.000000	24.017353	2.812820	2.927789	14.991857	-2.416081	94.867913	29.096924	49.257132	34.852078	-6.656287	15.205143	-7.149079	88.542554	31.854187	40.564266	40.427002	-12.351918
2.437500	-1.896608	-2.545685	82.702120	0.238876	0.825992	0.679747	6.914033	-1.768471	-0.487454	10.245692	0.178821	25.060062	12.710566	0.000000	2.357871	1.039454	-11.415203	1.110041	0.019374	20.729601	-2.444389	0.000000	0.057192	-0.309580	1.336444	0.106212	-0.411742	1.419971	0.093961	-0.752713	1.419971	0.065365	-0.752713	1.169388	0.053109	-0.631296	1.085860	0.032680	-0.479540	1.002333	0.408519	-3.502032	7.432898	0.000000	0.000000	24.292035	2.887111	3.281158	13.513099	-3.902872	84.935827	34.377529	58.505223	32.993691	-3.383919	13.155864	-9.446416	77.670191	37.885345	48.269916	35.714857	-10.462325
2.468750	-1.930202	-2.615355	82.888473	0.239343	0.825648	0.678155	6.908924	-1.759778	-0.231602	10.335398	0.180387	25.308916	12.217099	0.000000	2.410424	1.030322	-11.359174	1.247641	0.021775	20.982727	-2.294778	0.000000	0.068940	-0.316633	1.262364	0.128029	-0.421122	1.341262	0.113262	-0.769862	1.341262	0.078792	-0.769862	1.104569	0.064018	-0.645679	1.025671	0.039392	-0.490465	0.946773	0.492433	-3.581820	7.020892	0.000000	0.000000	24.663588	2.977272	3.656348	12.195022	-5.419406	75.238041	39.448044	67.314992	30.337008	-0.459386	11.132781	-11.576507	67.827551	43.669920	55.632663	30.518779	-8.835315
2.500000	-1.937306	-2.697512	83.085401	0.239675	0.825251	0.676714	6.896789	-1.726111	0.023450	10.377298	0.181118	25.469832	11.650573	0.000000	2.494585	0.995898	-11.197137	1.422413	0.024826	21.204789	-2.262871	0.000000	0.079459	-0.318125	1.192036	0.147562	-0.423107	1.266539	0.130542	-0.773490	1.266539	0.090813	-0.773490	1.043032	0.073785	-0.648721	0.968529	0.045403	-0.492776	0.894027	0.567564	-3.598697	6.629748	0.000000	0.000000	25.112566	3.074077	4.097341	11.109991	-6.919107	66.069111	44.170842	75.407935	27.084823	2.041633	9.231707	-13.472995	59.245904	49.022564	62.256384	25.092479	-7.463329
2.531250	-1.942943	-2.799110	83.292202	0.239854	0.824829	0.675501	6.902518	-1.707719	0.071631	10.387600	0.181298	25.590371	11.303410	0.000000	2.621495	0.963666	-10.987340	1.629314	0.028437	21.373351	-2.290585	0.000000	0.090208	-0.317877	1.122818	0.167525	-0.422777	1.192994	0.148202	-0.772887	1.192994	0.103098	-0.772887	0.982466	0.083767	-0.648216	0.912290	0.051545	-0.492392	0.842114	0.644345	-3.595893	6.244778	0.000000	0.000000	25.618438	3.176133	4.514683	10.291698	-8.295310	57.908745	48.309512	82.516989	23.455104	4.054200	7.511687	-15.115247	51.657154	53.724191	67.985581	20.089422	-6.448177
2.562500	-1.949759	-2.911718	83.497183	0.239931	0.824429	0.674584	6.915569	-1.694547	0.058502	10.344573	0.180547	25.649989	11.013545	0.000000	2.786368	0.935764	-10.688723	1.866347	0.032574	21.472300	-2.456952	0.000000	0.099645	-0.316992	1.059581	0.185050	-0.421599	1.125805	0.163706	-0.770735	1.125805	0.113884	-0.770735	0.927133	0.092530	-0.646410	0.860909	0.056937	-0.491021	0.794686	0.711752	-3.585878	5.893070	0.000000	0.000000	26.137860	3.278690	4.910203	9.749120	-9.444606	51.223212	51.577312	88.335458	19.943205	5.499956	6.054663	-16.433994	45.451513	57.582621	72.572296	15.893155	-5.771759
2.593750	-1.963893	-3.029751	83.719306	0.239888	0.824141	0.673998	6.928915	-1.697178	-0.052620	10.238909	0.178703	25.640220	10.824987	0.000000	2.984580	0.918903	-10.369038	2.121480	0.037027	21.507986	-2.628542	0.000000	0.109320	-0.315863	0.982348	0.203019	-0.420098	1.043745	0.179602	-0.767989	1.043745	0.124942	-0.767989	0.859555	0.101515	-0.644108	0.798158	0.062466	-0.489272	0.736761	0.780863	-3.573104	5.463528	0.000000	0.000000	26.572830	3.400898	5.352079	9.564412	-10.258361	46.965647	53.772906	92.515087	16.765216	6.324990	4.879353	-17.413390	40.529272	60.464229	75.746253	12.767355	-5.444611
2.625000	-1.986857	-3.142923	83.932960	0.239767	0.824034	0.673777	6.938230	-1.715511	-0.249040	10.073499	0.175816	25.560866	10.765805	0.000000	3.204147	0.915276	-10.015881	2.386283	0.041648	21.455584	-2.870124	0.000000	0.118348	-0.314954	0.898398	0.219785	-0.418889	0.954548	0.194435	-0.765780	0.954548	0.135260	-0.765780	0.786098	0.109898	-0.642255	0.729948	0.067624	-0.487864	0.673799	0.845351	-3.562826	4.996621	0.000000	0.000000	26.878518	3.511406	5.798579	9.763985	-10.678739	45.247125	54.756735	94.777082	14.435257	6.451901	4.084784	-17.992268	37.574879	62.118820	77.242062	10.942039	-5.451881
2.656250	-1.991365	-3.244335	84.166159	0.239501	0.824157	0.673877	6.922536	-1.720882	-0.462940	9.837574	0.171698	25.389122	10.706978	0.000000	3.431529	0.902944	-9.560415	2.650413	0.046258	21.318427	-3.235076	0.000000	0.126540	-0.310625	0.805830	0.234997	-0.413131	0.856194	0.207892	-0.755253	0.856194	0.144622	-0.755253	0.705101	0.117505	-0.633426	0.654737	0.072305	-0.481158	0.604372	0.903862	-3.513849	4.481784	0.000000	0.000000	27.011560	3.616723	6.274384	10.335647	-10.659269	46.231452	54.387230	94.873979	13.421966	5.862980	3.734329	-18.090099	36.894622	62.354288	76.938363	10.505651	-5.778114
